<svg version="1.1" xmlns="http://www.w3.org/2000/svg" xmlns:xlink="http://www.w3.org/1999/xlink" width="896.37504" height="328.64484" viewBox="0,0,896.37504,328.64484"><g transform="translate(122.99999,-2.27839)"><g data-paper-data="{&quot;isPaintingLayer&quot;:true}" fill-rule="nonzero" stroke-linejoin="miter" stroke-miterlimit="10" stroke-dasharray="" stroke-dashoffset="0" style="mix-blend-mode: normal"><path d="M446.1379,157.8287c30.89645,-6.07307 32.32507,-2.84604 62.92591,-4.16205c13.04666,-0.56108 26.04339,-1.96542 39.06644,-2.92998c44.74919,-3.31438 89.59181,-5.824 134.43528,-3.02114c17.18392,1.07405 34.13582,2.23585 51.21116,3.95112c3.95042,0.39683 7.77492,0.02906 11.7351,1.24178c11.525,3.52928 27.0362,10.1798 27.81867,24.26437c0.27683,4.98288 -0.73793,10.2105 -2.96978,14.67419c-2.23185,4.4637 -5.80509,8.41207 -9.95749,11.18034c-3.14932,2.09955 -7.22992,2.53012 -11.00565,2.79509c-6.40381,0.44939 -11.18634,-2.75789 -16.953,-4.15577c-5.71874,-1.38626 -12.71283,-1.65281 -18.51988,-2.07674c-5.76402,-0.42079 -11.54102,-0.63981 -17.31141,-0.96175c-5.73195,-0.31979 -11.54719,-0.63887 -17.27622,-1.01688c-29.36503,-1.93753 -58.39751,-0.96425 -87.68651,0.97562c-26.59969,1.76174 -53.17138,3.07538 -79.78077,5.00974c-9.94748,0.72313 -21.67017,-0.49032 -30.26351,0.07001c-1.76891,0.11534 -4.39423,0.56052 -7.5244,1.11466c-7.6031,4.22514 -17.28925,2.52331 -25.55274,4.02247c-2.35652,0.42752 -3.58337,1.43256 -5.89998,2.16966c-8.40128,2.67314 -27.93484,4.84897 -37.23158,4.84897c-5.07313,0 -9.66419,-3.10684 -14.47518,-3.15577c-7.97371,-0.08108 -15.94903,0.11192 -23.92236,0c-5.52051,-0.07749 -10.6586,-2.75684 -16.07764,-3c-25.02521,-1.12293 -55.05731,-0.82495 -78.92236,-1c-2.24244,-0.01645 -4.41115,-0.93744 -6.65278,-1c-13.26791,-0.37028 -15.8938,0.94335 -25.34722,1c-17.01945,0.10199 -33.44961,0.38265 -50.34723,1c-6.6804,0.24407 -12.88985,3.9738 -19.65277,4c-15.99988,0.06198 -32.00019,0.07773 -48,0c-3.94857,-0.01918 -7.85547,-1.91312 -11.65278,-2c-5.95284,-0.1362 -11.54021,-1.26184 -17.44809,-2.19305c-2.14637,-0.33831 -4.61501,-1.64316 -6.71369,-1.80695c-5.86271,-0.45757 -11.46544,-1.13671 -17.26181,-2.41823c-1.57753,-0.34877 -4.5397,-1.49664 -6.39912,-1.58177c-0.76915,-0.03521 -1.53058,-0.06688 -2.28609,-0.09884c-0.7374,0.06543 -1.48401,0.09884 -2.23842,0.09884c-26.68969,0.86073 -53.72671,3.78342 -80.10997,-0.34015c-7.04194,-1.10062 -19.35765,-2.44874 -27.40181,-4.90162c-2.65756,-0.81036 -6.46197,-2.74048 -9.25796,-2.75823c-19.24773,-0.12221 -64.23025,9.05042 -64.23025,-25c0,-14.61182 10.88477,-24.87986 25,-25c15.9687,-0.13592 32.15778,-2.25577 47.90625,0.39063c11.62651,1.95374 21.92753,7.26591 34.16282,7.60938c18.10944,0.50836 36.23662,-0.17037 54.35398,-0.24236c0.4975,-0.15982 0.99831,-0.30095 1.50225,-0.42489c2.53307,-0.86399 5.24915,-1.33275 8.07471,-1.33275c2.79579,0 5.48439,0.45893 7.99457,1.30556c1.74235,0.22628 3.49753,0.4737 5.25968,0.69444c2.85506,0.35764 5.77031,0.00638 8.64866,0.48549c5.7395,0.95537 11.41875,2.7071 17.17473,3.51451c3.1035,0.43534 6.34118,-0.07301 9.43519,0.70003c7.24876,1.81109 13.94819,2.91227 21.39342,3.6906c2.01197,0.21033 4.48259,1.59923 6.56924,1.60938c14.00729,0.06806 28.017,0.24128 42.02239,0c5.64879,-0.09732 13.08355,-3.85468 19.50213,-4c17.28406,-0.39132 33.17677,-0.85911 50.92236,-1c2.32346,-0.01845 4.70165,-0.98293 7.07764,-1c8.33312,-0.05985 16.66742,-0.1126 25,0c1.35158,0.01827 5.08873,0.98247 6.65278,1c26.5867,0.29789 52.06613,0.79063 78.34722,1c5.66754,0.04515 11.07717,2.87488 16.65278,3c20.78072,0.46635 22.49289,-0.44385 38.61963,2.91249c4.6447,0.96667 17.97893,-3.90853 22.09847,-5.21929c2.23873,-0.71232 5.29793,-0.39814 7.55149,-0.69321c0.1279,-0.01674 0.25589,-0.03381 0.38397,-0.05118c2.1416,-0.90169 4.43515,-1.51365 6.83157,-1.78678z" fill="#000000" stroke="none" stroke-width="0.5" stroke-linecap="butt"/><path d="M56.05694,102.66666c-4.83563,1.61187 -8.59969,1.31543 -13.55481,2c-3.66663,0.50656 -7.0338,2.15576 -10.89966,2.15576c-10.00391,0 -21.00321,-0.20541 -31.007,-0.15576c-6.05638,0.03006 -12.56057,0.14562 -18.09546,-3.125c-16.59428,-9.80572 -16.59428,-33.94429 0,-43.75c7.23861,-4.27736 16.84779,-2.99103 24.73026,-5.125c21.16643,-5.73025 44.61171,-1.76371 65.70068,-2c4.88293,-0.05471 9.01845,-1.38782 14.06906,-1c1.21083,0.09298 2.42229,0.18045 3.63427,0.26225c10.41733,0.70305 20.87369,0.9866 31.30879,0.73776c2.06149,-0.04916 3.96711,-1.13661 5.98056,-1.58176c2.15215,-0.47581 3.91819,-0.29292 5.99873,-0.41824c6.08393,-0.36644 11.80345,-3.92829 18.07764,-4c26.79511,-0.30628 52.37297,4.74217 79.49787,4c3.52843,-0.09654 7.15015,-2.15576 10.89966,-2.15576c5.17806,0 10.35849,0.33663 15.53339,0.15576c17.02224,-0.59495 33.98512,-4.85752 51.06907,-5c5.8059,-0.04842 12.89489,-0.45042 19.17903,0.178c11.19615,1.11962 21.85995,3.49576 33.31959,2.822c2.43914,-0.14341 4.9805,-1.48402 7.49662,-1.73563c6.83616,-0.68362 14.13111,-1.21287 21.00476,-1.26437c10.36586,-0.07767 16.53485,0.69197 25.7767,1c6.31556,0.2105 12.66903,-0.76362 18.95674,-0.13485c2.52549,0.25255 4.90876,2.03652 7.42558,2.13485c9.53061,0.37235 14.68763,0.16099 23.63564,1.15478c21.51511,2.38952 43.03082,4.37615 64.72985,3.84522c5.15116,-0.12604 10.29691,-1.84085 15.47549,-2c6.24268,-0.19186 13.68798,-0.14147 19.8444,-1c0.93906,-0.13096 1.58941,-1.16233 2.52648,-1.3068c3.74081,-0.57672 7.67312,-1.82454 11.32476,-0.82864c10.12783,2.76214 17.67767,10.31197 20.4398,20.43981c0.9959,3.65164 0.11398,7.659 -0.82864,11.32476c-2.2953,8.92616 -11.18887,16.97669 -19.67767,19.67767c-3.46344,1.10201 -8.03999,0.76303 -11.56052,0.69321c-6.41366,-0.1272 -13.16896,0.59179 -19.59312,1c-5.1505,0.32728 -10.29242,1.95008 -15.47549,2c-6.31188,0.06079 -18.55809,0.78948 -27.10998,-0.34015c-7.01462,-0.92657 -14.04735,-0.13568 -21.06905,-0.83785c-10.41301,-1.0413 -20.8904,-3.46791 -31.37741,-3.822c-6.38885,-0.21572 -12.81623,0.77093 -19.17699,0.13485c-2.52549,-0.25255 -4.90876,-2.03652 -7.42558,-2.13485c-11.3563,-0.44367 -24.19332,-1.44454 -35.45635,-1c-4.00326,0.15801 -11.63722,0.51732 -15.88326,1c-3.60673,0.41 -6.81671,1.95579 -10.50137,2c-5.65643,0.06786 -17.24478,0.85517 -24.9029,-0.48548c-5.12162,-0.8966 -11.72373,-2.41122 -17.17473,-2.51452c-8.82223,-0.16719 -17.73303,0.41222 -26.53773,1c-10.58825,0.70685 -21.83303,2.2344 -32.27465,3.65985c-5.76147,0.78654 -12.03123,0.06715 -17.60785,0.34015c-3.571,0.17482 -7.11431,2.15576 -10.89966,2.15576c-11.13162,0 -23.58792,1.0961 -35.138,-0.40702c-7.81463,-1.01699 -15.28996,-1.10967 -23,-2c-3.75364,-0.43345 -8.745,-1.73213 -12.43492,-1.74874c-9.90097,-0.04456 -13.20212,1.35757 -21.96615,3.25356c-2.0452,0.44245 -4.6088,0.15147 -6.56126,0.74644c-3.39776,1.03539 -7.95728,2.90304 -11.51299,2z" fill="#000000" stroke="none" stroke-width="0.5" stroke-linecap="butt"/><path d="M53.47549,314.66666c-2.48726,0.15805 -4.94349,0.98145 -7.47549,1c-12.47158,0.09139 -39.61823,1.53551 -54.50212,-3c-4.26257,-1.29892 -9.16151,-0.85806 -12.99787,-3.125c-8.65911,-5.11674 -12.5,-11.10818 -12.5,-21.875c0,-4.99057 1.43024,-10.1201 3.90625,-14.45312c7.27748,-12.73559 23.30852,-9.896 34.90596,-10.54687c35.686,-2.00279 71.38615,-5.33177 107.18779,-5c7.21191,0.06683 14.85897,2.20639 21.90625,3.39063c3.68931,0.61996 7.33948,2.59067 11.17139,2.60938c17.80316,0.08692 35.67441,-1.42848 53.40996,0.12407c5.09336,0.44587 11.88637,0.29201 17.02524,1.57595c4.1101,1.0269 9.32567,3.28982 13.55623,3.29998c22.97691,0.05518 45.95429,-0.12322 68.93094,0c5.34897,0.02868 11.55194,3.91577 14.9017,4c12.16201,0.30581 23.88741,-1.13948 36.0983,-1c6.23654,0.07124 12.69648,1.38517 18.83906,2.27272c5.75328,0.8313 11.38798,0.16357 17.06719,1.11791c1.66078,0.27908 3.98546,1.59987 5.59587,1.60938c42.16523,0.24882 84.33211,-0.12631 126.49788,0c7.08231,0.02121 14.544,2.58636 21.31048,4.33105c3.10022,0.79937 6.43316,1.16519 9.18952,2.79395c12.84669,7.59123 15.97901,23.40393 8.59375,36.32813c-3.74807,6.55912 -10.64229,8.51995 -17.1875,10.15625c-10.48165,2.62041 -17.16851,-3.56014 -25.96319,-3.60937c-41.98036,-0.23501 -83.96209,0.06351 -125.94306,0c-3.70757,-0.00561 -7.17647,-1.76855 -10.76974,-2c-13.10235,-0.84394 -26.59976,-3.56313 -39.75477,-3c-11.37493,0.48692 -18.93418,1.06426 -32.47549,1c-1.1698,-0.00555 -2.35836,0.61174 -3.49385,0.33046c-1.94302,-0.48131 -7.8429,-4.31844 -10.3931,-4.33046c-22.40771,-0.10564 -45.03407,2.78514 -67.22302,-0.34015c-9.50011,-1.33808 -18.47892,-4.52232 -28.13692,-4.65985c-17.58258,-0.25038 -35.16885,0.0622 -52.75311,0c-8.7649,-0.031 -18.92031,-2.43319 -27.03678,-5.20367c-8.00673,-2.73302 -20.31102,-1.18431 -27.04198,-0.73558c-0.50919,0.37935 -1.0333,0.73978 -1.57132,1.08023c-0.73811,0.63746 -1.80239,1.17548 -3.01309,1.62865c-3.13057,1.42347 -6.60637,2.2203 -10.2672,2.23028c-7.49939,1.56804 -12.37194,1.54117 -19.59415,2.00009z" fill="#000000" stroke="none" stroke-width="0.5" stroke-linecap="butt"/><path d="M81,124.66666v-17h25v17z" fill="#0cb900" stroke="none" stroke-width="0" stroke-linecap="butt"/><path d="M207,128.66667v-19h26v19z" fill="#0cb900" stroke="none" stroke-width="0" stroke-linecap="butt"/><path d="M348,125.66666v-22h43v22z" fill="#0cb900" stroke="none" stroke-width="0" stroke-linecap="butt"/><path d="M90,230.66667v-17h14v17z" fill="#0cb900" stroke="none" stroke-width="0" stroke-linecap="butt"/><path d="M180,231.66667v-13h21v13z" fill="#0cb900" stroke="none" stroke-width="0" stroke-linecap="butt"/><path d="M265,240.66667v-21h28v21z" fill="#0cb900" stroke="none" stroke-width="0" stroke-linecap="butt"/><path d="M351,241.66667v-22h33v22z" fill="#0cb900" stroke="none" stroke-width="0" stroke-linecap="butt"/><path d="M277,125.66666v-18h22v18z" fill="#0cb900" stroke="none" stroke-width="0" stroke-linecap="butt"/><path d="M145,130.66667v-24h27v24z" fill="#0cb900" stroke="none" stroke-width="0" stroke-linecap="butt"/><path d="M412,113.54166v-13.75h18.75v13.75z" fill="#0cb900" stroke="none" stroke-width="0" stroke-linecap="butt"/><path d="M417,241.66667v-21h31v21z" fill="#0cb900" stroke="none" stroke-width="0" stroke-linecap="butt"/><path d="M43,221.66667v-16h31v16z" fill="#0cb900" stroke="none" stroke-width="0" stroke-linecap="butt"/><path d="M33,126.66666v-17h30v17z" fill="#0cb900" stroke="none" stroke-width="0" stroke-linecap="butt"/><path d="M434,27.66666v-17h22v17z" fill="#0cb900" stroke="none" stroke-width="0" stroke-linecap="butt"/><path d="M381,30.66666v-15h26v15z" fill="#0cb900" stroke="none" stroke-width="0" stroke-linecap="butt"/><path d="M322,28.66666v-19h34v19z" fill="#0cb900" stroke="none" stroke-width="0" stroke-linecap="butt"/><path d="M141,25.66666v-16h33v16z" fill="#0cb900" stroke="#734300" stroke-width="0" stroke-linecap="butt"/><path d="M156.72093,36.50386l0.48837,-3.90698" fill="none" stroke="#a75900" stroke-width="15" stroke-linecap="round"/><path d="M338.88365,33.08526l0.48837,2.93023" fill="none" stroke="#a75900" stroke-width="15" stroke-linecap="round"/><path d="M393.09293,33.57363v4.88372" fill="none" stroke="#a75900" stroke-width="10" stroke-linecap="round"/><path d="M443.39523,31.62014v9.76744" fill="none" stroke="#a75900" stroke-width="10" stroke-linecap="round"/><path d="M46.59307,128.07359v12.2093" fill="none" stroke="#a75900" stroke-width="10" stroke-linecap="round"/><path d="M92.01166,140.77127l-0.97674,-15.13953" fill="none" stroke="#a75900" stroke-width="10" stroke-linecap="round"/><path d="M156.96512,125.63174l-0.48837,21.97673" fill="none" stroke="#a75900" stroke-width="10" stroke-linecap="round"/><path d="M220.45347,126.60848v20.99999" fill="none" stroke="#a75900" stroke-width="10" stroke-linecap="round"/><path d="M286.87204,121.23639l0.48837,24.41859" fill="none" stroke="#a75900" stroke-width="10" stroke-linecap="round"/><path d="M366.96503,121.23639l-0.97674,30.27906" fill="none" stroke="#a75900" stroke-width="10" stroke-linecap="round"/><path d="M422.15105,150.53871l-0.97674,-36.62789" fill="none" stroke="#a75900" stroke-width="10" stroke-linecap="round"/><path d="M61.48842,246.01541v-24.41859" fill="none" stroke="#a75900" stroke-width="10" stroke-linecap="round"/><path d="M97.13956,228.43402l-0.97674,21.97673" fill="none" stroke="#a75900" stroke-width="10" stroke-linecap="round"/><path d="M189.44185,230.14332l1.46512,21.48836" fill="none" stroke="#a75900" stroke-width="10" stroke-linecap="round"/><path d="M275.15112,236.73635l0.97674,21.97673" fill="none" stroke="#a75900" stroke-width="10" stroke-linecap="round"/><path d="M369.65108,240.15495l-0.48837,16.60464" fill="none" stroke="#a75900" stroke-width="10" stroke-linecap="round"/><path d="M427.03477,242.10844v18.55813" fill="none" stroke="#a75900" stroke-width="10" stroke-linecap="round"/><text transform="translate(255.74434,23.86432) scale(0.5,0.5)" font-size="40" xml:space="preserve" fill="#ff0000" fill-rule="nonzero" stroke="none" stroke-width="1" stroke-linecap="butt" stroke-linejoin="miter" stroke-miterlimit="10" stroke-dasharray="" stroke-dashoffset="0" font-family="Sans Serif" font-weight="normal" text-anchor="start" style="mix-blend-mode: normal"><tspan x="0" dy="0">Finish</tspan></text></g></g></svg>