<svg version="1.1" xmlns="http://www.w3.org/2000/svg" xmlns:xlink="http://www.w3.org/1999/xlink" width="140.99804" height="46.46409" viewBox="0,0,140.99804,46.46409"><g transform="translate(-169.00321,-176.99796)"><g data-paper-data="{&quot;isPaintingLayer&quot;:true}" fill-rule="nonzero" stroke="none" stroke-width="1" stroke-linecap="butt" stroke-linejoin="miter" stroke-miterlimit="10" stroke-dasharray="" stroke-dashoffset="0" style="mix-blend-mode: normal"><path d="M275.33145,218.916c-15.197,-2.125 -23.725,-1.276 -38.924,-0.682c-6.519,0.257 -10.131,0.893 -16.652,1.531c-2.86,0.255 -4.764,2.212 -7.223,1.021c-1.353,-0.636 -1.055,-2.041 -1.203,-3.402c-0.152,-1.316 -1.822,-2.617 -0.604,-3.4c6.22,-3.998 43.99,-5.019 67.816,0z" data-paper-data="{&quot;index&quot;:null}" fill="#007b00"/><path d="M281.75145,201.141c-5.267,0.679 -8.627,3.062 -10.232,7.4c-0.953,2.636 -1.404,3.826 -2.006,6.464c-16.202,0 -32.103,-0.937 -53.67,1.955c-0.603,-4.252 -0.353,-8.292 -4.014,-11.396c-5.766,-4.891 -11.936,-5.357 -19.16,-2.127c-5.768,2.553 -2.858,12.121 -9.229,11.142c-6.42,-0.977 -14.947,-2.552 -11.234,-10.205c3.66,0 2.807,-3.572 4.814,-6.208c2.357,-3.106 3.411,-4.637 7.123,-6.464c7.875,-3.912 13.291,-4.423 22.37,-4.423c5.418,0 18.508,4.004 18.86,2.041c0.501,-2.804 13.342,-11.65 13.342,-11.65c0,0 1.103,7.356 1.103,11.651c14.798,0 20.114,1.787 34.911,0c7.975,-0.936 14.947,-2.297 22.772,-0.936c6.621,1.149 7.373,6.465 6.821,12.162c4.314,0.255 7.173,6.422 4.113,9.016c-3.662,3.104 -7.725,0.936 -11.537,2.125c0,-6.59 -7.473,-11.566 -15.147,-10.547z" data-paper-data="{&quot;index&quot;:null}" fill="#1ccc42"/><path d="M239.19745,177.005c1.887,0.339 1.79,11.834 2.338,12.214c3.517,0.285 24.918,0.238 34.646,-0.812c3.476,-0.375 18.453,-3.063 24.569,0.056c1.941,0.991 4.447,3.829 5.407,5.568c1.14,2.062 1.795,4.853 0.028,6.773l-8.579,0.639l-0.394,-5.732c0,0 4.862,-1.084 6.236,-1.8c-2.914,-4.786 -9.509,-5.323 -15.149,-4.782c-10.374,0.997 -20.768,1.938 -31.217,2.084c-4.355,0.06 -16.111,-0.236 -17.719,-0.465c-0.073,-3.829 -0.715,-11.383 -1.477,-11.444c-0.761,-0.061 -8.889,7.247 -12.686,11.354c-0.531,0.137 -34.01,-6.055 -44.496,4.75l6.062,0.992l-1.156,7.263l-9.084,-0.99c0,0 -0.672,2.619 -1.086,3.009c-0.416,0.388 -3.463,0.025 -3.463,0.025c0,0 -0.674,4.727 3.092,5.887c1.309,0.4 9.984,1.072 11.172,1.036c0.966,-4.723 4.426,-10.839 10.224,-12.005c4.369,-0.881 11.288,-0.064 15.233,3.384c3.223,2.818 5.266,7.985 5.664,11.767c14.261,-2.52 39.124,-3.028 51.344,-1.623c0.246,-4.813 3.247,-9.346 6.641,-11.965c7.73,-5.964 22.451,0.398 22.25,8.478c4.636,0.503 10.707,0.046 10.033,-5.19c-0.147,-1.139 -2,-2.252 -1.34,-3.312c0.378,-0.605 1.062,-0.275 1.546,-0.021c2.023,1.058 2.494,3.418 1.963,5.278c-0.552,1.936 -1.197,4.602 -6.07,5.147c-2.647,0.297 -4.879,0.351 -7.537,0.053c-0.046,-1.583 0.165,-2.525 -0.301,-4.082c-1.776,-5.95 -15.41,-8.557 -20.407,-4.268c-3.948,3.388 -5.05,9.521 -4.772,11.535c-15.716,-0.818 -31.463,-0.847 -47.105,0.651c-2.898,0.279 -6.018,1.169 -8.908,1.05c-0.396,-4.664 -0.606,-8.898 -5.271,-12.064c-3.593,-2.437 -9.207,-3.747 -13.649,-2.321c-7.104,2.28 -8.191,10.851 -8.914,12.382c-3.843,-0.621 -13.974,-1.504 -16.528,-3.984c-1.802,-1.754 -1.658,-5.424 -0.289,-7.295c0.767,-1.049 1.935,-1.072 3.253,-0.939c4.532,-8.658 8.038,-13.879 19.531,-16.23c8.278,-1.693 24.637,0.752 31.383,1.549c0,0 13.094,-11.938 14.982,-11.6z" data-paper-data="{&quot;index&quot;:null}" fill="#272525"/><path d="M237.01945,181.3c0.885,0.255 0.541,9.511 0.541,9.511l-10.066,-0.183c0,0 8.64,-9.585 9.525,-9.328z" data-paper-data="{&quot;index&quot;:null}" fill="#272525"/><path d="M235.64845,184.489c0.524,0.168 0.157,3.13 -0.028,4.784l-4.74,0.016c1.479,-1.56 4.248,-4.969 4.768,-4.8z" data-paper-data="{&quot;index&quot;:null}" fill="#99ffff"/><path d="M262.86545,193.088c-0.033,1.025 0.607,15.205 0.61,16.123c0.003,0.919 -1.835,0.661 -1.851,-0.125c-0.016,-0.785 -0.183,-15.127 -0.207,-16.147c-0.025,-1.018 1.479,-0.875 1.448,0.149z" data-paper-data="{&quot;index&quot;:null}" fill="#272525"/><path d="M299.21745,196.886l4.735,-0.782l0.104,2.623l-4.872,0.416z" data-paper-data="{&quot;index&quot;:null}" fill="#ffaa00"/><path d="M225.95645,192.942c0.116,0.754 0.674,15.103 0.628,15.824c-0.047,0.721 -1.612,0.868 -1.762,0.058c-0.151,-0.81 -0.08,-15.255 -0.068,-15.937c0.009,-0.681 1.083,-0.701 1.202,0.055z" data-paper-data="{&quot;index&quot;:null}" fill="#272525"/><path d="M282.41645,195.598c3.189,0.398 7.222,1.594 9.465,3.672c0.159,0.148 0.485,0.694 -0.044,0.72c-0.664,0.034 -3.23,-1.544 -4.096,-1.808c-4.481,-1.362 -11.071,-1.87 -14.421,1.526c-2.706,2.742 -5.958,10.442 -6.625,9.819c0.225,-7.737 5.357,-15.218 15.721,-13.929z" data-paper-data="{&quot;index&quot;:null}" fill="#272525"/><path d="M260.07545,196.861l0.026,3.885l-8.193,-0.139l0.134,-3.877z" data-paper-data="{&quot;index&quot;:null}" fill="#272525"/><path d="M220.35045,208.869c0.23,1.207 -2.057,1.543 -2.236,0.85c-3.543,-13.791 -18.228,-16.744 -26.014,-9.057c-0.344,0.336 -1.677,0.639 -1.551,0.065c1.534,-6.982 26.161,-11.144 29.801,8.142z" data-paper-data="{&quot;index&quot;:null}" fill="#272525"/><path d="M258.61045,197.713l0.172,2.094l-5.325,0.018l-0.328,-2.014z" data-paper-data="{&quot;index&quot;:null}" fill="#007b00"/><path d="M179.07945,197.528c0.702,-0.307 4.675,0.279 4.675,0.279l-0.527,4.221l-6.244,-0.639c0,0 1.384,-3.552 2.096,-3.861z" data-paper-data="{&quot;index&quot;:null}" fill="#fff400"/><path d="M298.54045,203.538l7.15,-0.226l0.571,5.206l-8.681,0.212z" data-paper-data="{&quot;index&quot;:null}" fill="#272525"/><path d="M304.55145,204.48l0.494,2.579l-5.71,-0.01l0.231,-2.022z" data-paper-data="{&quot;index&quot;:null}" fill="#fff400"/><path d="M269.91545,212.027c0.654,0.283 0.282,1.031 -0.274,0.981c-12.402,-1.091 -25.043,-2.042 -37.52,-1.644c-1.744,0.056 -12.75,1.114 -15.343,1.975c-0.564,0.19 -1.135,-1.306 -0.434,-1.482c11.103,-2.778 51.264,-0.826 53.571,0.17z" data-paper-data="{&quot;index&quot;:null}" fill="#272525"/><path d="M196.77345,204.551c10.316,-2.072 20.413,6.152 13.728,13.928c-1.058,1.23 -1.964,2.386 -3.498,3.209c-8.357,4.488 -19.304,0.052 -18.728,-8.713c0.266,-4.016 4.483,-7.618 8.498,-8.424z" data-paper-data="{&quot;index&quot;:null}" fill="#272525"/><path d="M191.66945,209.813c4.339,-5.33 13.174,-4.414 17.237,0.15c1.429,1.608 0.986,5.448 -0.014,7.17c-1.697,2.93 -7.259,4.997 -11.021,4.583c-6.105,-0.673 -10.331,-6.833 -6.202,-11.903z" data-paper-data="{&quot;index&quot;:null}" fill="#3815d9"/><path d="M197.08545,208.731c5.457,-2.549 11.02,2.489 10.08,6.343c-0.636,2.603 -3.963,5.228 -8.407,4.952c-3.548,-0.223 -7.207,-4.706 -5.785,-7.518c0.465,-0.917 1.486,-2.553 4.112,-3.777z" data-paper-data="{&quot;index&quot;:null}" fill="#272525"/><path d="M194.64645,214.468c-0.164,-1.301 0.185,-2.495 1.297,-3.503c3.063,-2.772 9.414,-0.297 9.172,3.483c-0.308,4.895 -9.677,6.303 -10.469,0.02z" data-paper-data="{&quot;index&quot;:null}" fill="#ffffff"/><path d="M208.41845,216.279l-16.553,-2.55l0.502,-1.276l16.051,3.063z" data-paper-data="{&quot;index&quot;:null}" fill="#272525"/><path d="M196.73345,220.977l4.721,-13.691l1.445,0.557l-5.27,13.212z" data-paper-data="{&quot;index&quot;:null}" fill="#272525"/><path d="M280.23845,203.359c10.316,-2.072 20.135,7.015 13.45,14.791c-1.057,1.232 -1.687,1.523 -3.221,2.346c-8.354,4.488 -19.303,0.052 -18.726,-8.712c0.264,-4.014 4.481,-7.616 8.497,-8.425z" data-paper-data="{&quot;index&quot;:null}" fill="#272525"/><path d="M275.13445,208.621c4.339,-5.33 12.134,-5.865 17.237,0.15c1.387,1.638 0.987,5.449 -0.012,7.17c-1.699,2.931 -7.294,5.176 -11.023,4.584c-4.865,-0.772 -10.331,-6.834 -6.202,-11.904z" data-paper-data="{&quot;index&quot;:null}" fill="#3815d9"/><path d="M280.54945,207.539c5.457,-2.549 11.021,2.489 10.08,6.343c-0.636,2.604 -3.961,5.227 -8.407,4.952c-3.547,-0.223 -7.207,-4.706 -5.784,-7.518c0.463,-0.916 1.485,-2.55 4.111,-3.777z" data-paper-data="{&quot;index&quot;:null}" fill="#272525"/><path d="M278.11145,213.278c-0.163,-1.301 0.184,-2.495 1.297,-3.502c3.062,-2.773 9.794,-0.268 9.173,3.482c-0.711,4.299 -9.681,6.304 -10.47,0.02z" data-paper-data="{&quot;index&quot;:null}" fill="#ffffff"/><path d="M291.91445,210.559l-15.521,5.503l-0.399,-1.302l15.428,-4.842z" data-paper-data="{&quot;index&quot;:null}" fill="#272525"/><path d="M285.12845,219.893l-4.833,-13.664l1.568,-0.2l4.069,13.515z" data-paper-data="{&quot;index&quot;:null}" fill="#272525"/><path d="M281.98945,210.195c2.728,-1.275 5.511,1.242 5.04,3.171c-0.319,1.303 -1.981,2.617 -4.204,2.477c-1.774,-0.113 -3.604,-2.353 -2.892,-3.759c0.233,-0.458 0.743,-1.275 2.056,-1.889z" data-paper-data="{&quot;index&quot;:null}" fill="#272525"/><path d="M280.77045,213.065c-0.082,-0.649 0.092,-1.248 0.648,-1.752c1.532,-1.386 4.897,-0.133 4.587,1.742c-0.356,2.149 -4.841,3.151 -5.235,0.01z" data-paper-data="{&quot;index&quot;:null}" fill="#a4b9bc"/><path d="M198.52645,211.384c2.727,-1.273 5.51,1.244 5.039,3.172c-0.317,1.303 -1.98,2.615 -4.203,2.477c-1.775,-0.112 -3.605,-2.352 -2.893,-3.758c0.23,-0.461 0.742,-1.277 2.057,-1.891z" data-paper-data="{&quot;index&quot;:null}" fill="#272525"/><path d="M197.30545,214.254c-0.081,-0.648 0.093,-1.247 0.648,-1.75c1.531,-1.387 5.001,-0.12 4.587,1.741c-0.298,1.338 -4.841,3.151 -5.235,0.009z" data-paper-data="{&quot;index&quot;:null}" fill="#a4b9bc"/></g></g></svg>